<svg xmlns="http://www.w3.org/2000/svg" xmlns:xlink="http://www.w3.org/1999/xlink" width="1920" zoomAndPan="magnify" viewBox="0 0 1440 809.999993" height="1080" preserveAspectRatio="xMidYMid meet" version="1.0"><defs><filter x="0%" y="0%" width="100%" height="100%" id="974f6f4c69"><feColorMatrix values="0 0 0 0 1 0 0 0 0 1 0 0 0 0 1 0 0 0 1 0" color-interpolation-filters="sRGB"/></filter><mask id="1f88e18c38"><g filter="url(#974f6f4c69)"><rect x="-144" width="1728" fill="#000000" y="-80.999999" height="971.999992" fill-opacity="0.5"/></g></mask><clipPath id="5147cd30d9"><path d="M 0 0 L 887 0 L 887 343 L 0 343 Z M 0 0 " clip-rule="nonzero"/></clipPath><clipPath id="951a411c64"><path d="M -1273.800781 -465.496094 L 703.355469 -1108.21875 L 1040.714844 -70.425781 L -936.441406 572.296875 Z M -1273.800781 -465.496094 " clip-rule="nonzero"/></clipPath><clipPath id="f54a465df1"><path d="M -1273.800781 -465.496094 L 703.355469 -1108.21875 L 1040.714844 -70.425781 L -936.441406 572.296875 Z M -1273.800781 -465.496094 " clip-rule="nonzero"/></clipPath><clipPath id="962395eb09"><path d="M 0 0 L 895 0 L 895 367 L 0 367 Z M 0 0 " clip-rule="nonzero"/></clipPath><clipPath id="d66c0b9014"><path d="M -1265.996094 -441.484375 L 711.160156 -1084.210938 L 1048.519531 -46.417969 L -928.632812 596.308594 Z M -1265.996094 -441.484375 " clip-rule="nonzero"/></clipPath><clipPath id="fa4a5cd1c0"><path d="M -1265.996094 -441.484375 L 711.160156 -1084.210938 L 1048.519531 -46.417969 L -928.632812 596.308594 Z M -1265.996094 -441.484375 " clip-rule="nonzero"/></clipPath><clipPath id="15835958e2"><path d="M 0 0 L 879 0 L 879 319 L 0 319 Z M 0 0 " clip-rule="nonzero"/></clipPath><clipPath id="d031b80ff2"><path d="M -1281.59375 -489.46875 L 695.5625 -1132.191406 L 1032.921875 -94.398438 L -944.230469 548.324219 Z M -1281.59375 -489.46875 " clip-rule="nonzero"/></clipPath><clipPath id="fa49a8bd64"><path d="M -1281.59375 -489.46875 L 695.5625 -1132.191406 L 1032.921875 -94.398438 L -944.230469 548.324219 Z M -1281.59375 -489.46875 " clip-rule="nonzero"/></clipPath><clipPath id="e9ccdd14b4"><rect x="0" width="1050" y="0" height="597"/></clipPath><mask id="c1c8d5371a"><g filter="url(#974f6f4c69)"><rect x="-144" width="1728" fill="#000000" y="-80.999999" height="971.999992" fill-opacity="0.5"/></g></mask><clipPath id="bbad2704f9"><path d="M 155 232 L 1105 232 L 1105 548 L 155 548 Z M 155 232 " clip-rule="nonzero"/></clipPath><clipPath id="cba9c63848"><path d="M 1.070312 645.238281 L 1978.226562 2.515625 L 2315.585938 1040.308594 L 338.433594 1683.03125 Z M 1.070312 645.238281 " clip-rule="nonzero"/></clipPath><clipPath id="a2f2b042cf"><path d="M 1.070312 645.238281 L 1978.226562 2.515625 L 2315.585938 1040.308594 L 338.433594 1683.03125 Z M 1.070312 645.238281 " clip-rule="nonzero"/></clipPath><clipPath id="2c10fda6c8"><rect x="0" width="1105" y="0" height="548"/></clipPath><mask id="b107b8f856"><g filter="url(#974f6f4c69)"><rect x="-144" width="1728" fill="#000000" y="-80.999999" height="971.999992" fill-opacity="0.5"/></g></mask><clipPath id="806e8126af"><path d="M 155 232 L 1097 232 L 1097 524 L 155 524 Z M 155 232 " clip-rule="nonzero"/></clipPath><clipPath id="dad5fad225"><path d="M 0.875 645.25 L 1978.03125 2.527344 L 2315.394531 1040.320312 L 338.238281 1683.042969 Z M 0.875 645.25 " clip-rule="nonzero"/></clipPath><clipPath id="516facc16b"><path d="M 0.875 645.25 L 1978.03125 2.527344 L 2315.394531 1040.320312 L 338.238281 1683.042969 Z M 0.875 645.25 " clip-rule="nonzero"/></clipPath><clipPath id="7f16b2aa9f"><rect x="0" width="1097" y="0" height="524"/></clipPath><mask id="0557a0bb2e"><g filter="url(#974f6f4c69)"><rect x="-144" width="1728" fill="#000000" y="-80.999999" height="971.999992" fill-opacity="0.5"/></g></mask><clipPath id="ecdcab87fb"><path d="M 155 232 L 1113 232 L 1113 572 L 155 572 Z M 155 232 " clip-rule="nonzero"/></clipPath><clipPath id="01697e5793"><path d="M 1.277344 645.269531 L 1978.433594 2.542969 L 2315.796875 1040.335938 L 338.640625 1683.0625 Z M 1.277344 645.269531 " clip-rule="nonzero"/></clipPath><clipPath id="07fe3d79b6"><path d="M 1.277344 645.269531 L 1978.433594 2.542969 L 2315.796875 1040.335938 L 338.640625 1683.0625 Z M 1.277344 645.269531 " clip-rule="nonzero"/></clipPath><clipPath id="b0be363283"><rect x="0" width="1113" y="0" height="572"/></clipPath></defs><g mask="url(#1f88e18c38)"><g transform="matrix(1, 0, 0, 1, 0, 0.000000000000039746)"><g clip-path="url(#e9ccdd14b4)"><g clip-path="url(#5147cd30d9)"><g clip-path="url(#951a411c64)"><g clip-path="url(#f54a465df1)"><path fill="#ffffff" d="M 52.1875 250.734375 C -211.445312 336.4375 -476.902344 363.339844 -695.070312 326.402344 C -801.492188 308.429688 -890.902344 276.285156 -960.777344 230.734375 C -1033.652344 183.65625 -1082.207031 123.890625 -1105.085938 53.507812 C -1127.964844 -16.878906 -1123.835938 -93.769531 -1092.84375 -174.839844 C -1062.90625 -252.835938 -1009.488281 -331.414062 -934.183594 -408.457031 C -779.164062 -566.480469 -548.632812 -700.8125 -284.996094 -786.515625 C -21.363281 -872.214844 244.09375 -899.117188 462.261719 -862.179688 C 568.679688 -844.210938 658.089844 -812.0625 727.964844 -766.511719 C 800.703125 -719.160156 849.191406 -659.601562 872.136719 -589.011719 C 895.085938 -518.421875 890.886719 -441.738281 859.898438 -360.667969 C 829.957031 -282.667969 776.539062 -204.09375 701.234375 -127.046875 C 546.148438 30.769531 315.820312 165.035156 52.1875 250.734375 Z M -282.320312 -778.28125 C -822.96875 -602.53125 -1188.308594 -230.503906 -1096.855469 50.832031 C -1005.398438 332.164062 -491.136719 418.253906 49.511719 242.503906 C 590.15625 66.753906 955.5 -305.273438 864.042969 -586.609375 C 772.589844 -867.941406 258.324219 -954.03125 -282.320312 -778.28125 Z M -282.320312 -778.28125 " fill-opacity="1" fill-rule="nonzero"/></g></g></g><g clip-path="url(#962395eb09)"><g clip-path="url(#d66c0b9014)"><g clip-path="url(#fa4a5cd1c0)"><path fill="#ffffff" d="M 59.992188 274.746094 C -203.640625 360.449219 -469.097656 387.351562 -687.265625 350.410156 C -793.6875 332.441406 -883.097656 300.296875 -952.972656 254.746094 C -1025.847656 207.664062 -1074.398438 147.902344 -1097.28125 77.515625 C -1120.160156 7.132812 -1116.03125 -69.757812 -1085.039062 -150.828125 C -1055.101562 -228.824219 -1001.683594 -307.402344 -926.378906 -384.445312 C -771.359375 -542.472656 -540.828125 -676.800781 -277.191406 -762.503906 C -13.558594 -848.203125 251.898438 -875.105469 470.066406 -838.167969 C 576.488281 -820.199219 665.898438 -788.050781 735.773438 -742.5 C 808.507812 -695.148438 856.996094 -635.59375 879.941406 -565 C 902.890625 -494.410156 898.691406 -417.726562 867.703125 -336.65625 C 837.761719 -258.65625 784.34375 -180.082031 709.039062 -103.039062 C 553.953125 54.78125 323.628906 189.046875 59.992188 274.746094 Z M -274.515625 -754.269531 C -815.164062 -578.519531 -1180.503906 -206.492188 -1089.046875 74.839844 C -997.59375 356.175781 -483.328125 442.265625 57.316406 266.515625 C 597.960938 90.765625 963.304688 -281.265625 871.847656 -562.597656 C 780.394531 -843.933594 266.128906 -930.023438 -274.515625 -754.269531 Z M -274.515625 -754.269531 " fill-opacity="1" fill-rule="nonzero"/></g></g></g><g clip-path="url(#15835958e2)"><g clip-path="url(#d031b80ff2)"><g clip-path="url(#fa49a8bd64)"><path fill="#ffffff" d="M 44.394531 226.765625 C -219.238281 312.464844 -484.695312 339.367188 -702.863281 302.429688 C -809.285156 284.460938 -898.695312 252.3125 -968.570312 206.761719 C -1041.445312 159.683594 -1089.996094 99.921875 -1112.878906 29.535156 C -1135.757812 -40.847656 -1131.628906 -117.738281 -1100.636719 -198.808594 C -1070.699219 -276.808594 -1017.28125 -355.382812 -941.976562 -432.429688 C -786.957031 -590.453125 -556.425781 -724.785156 -292.789062 -810.484375 C -29.15625 -896.1875 236.300781 -923.089844 454.46875 -886.152344 C 560.886719 -868.179688 650.300781 -836.035156 720.175781 -790.484375 C 792.910156 -743.132812 841.398438 -683.574219 864.34375 -612.984375 C 887.292969 -542.394531 883.09375 -465.707031 852.105469 -384.636719 C 822.164062 -306.640625 768.746094 -228.0625 693.441406 -151.019531 C 538.355469 6.800781 308.03125 141.0625 44.394531 226.765625 Z M -290.113281 -802.253906 C -830.761719 -626.503906 -1196.101562 -254.472656 -1104.644531 26.859375 C -1013.191406 308.191406 -498.925781 394.285156 41.71875 218.53125 C 582.363281 42.78125 947.707031 -329.246094 856.25 -610.582031 C 764.796875 -891.914062 250.53125 -978.003906 -290.113281 -802.253906 Z M -290.113281 -802.253906 " fill-opacity="1" fill-rule="nonzero"/></g></g></g></g></g></g><g mask="url(#c1c8d5371a)"><g transform="matrix(1, 0, 0, 1, 335, 262)"><g clip-path="url(#2c10fda6c8)"><g clip-path="url(#bbad2704f9)"><g clip-path="url(#cba9c63848)"><g clip-path="url(#a2f2b042cf)"><path fill="#ffffff" d="M 1327.058594 1361.472656 C 1063.425781 1447.171875 797.96875 1474.074219 579.800781 1437.136719 C 473.378906 1419.167969 383.96875 1387.019531 314.09375 1341.46875 C 241.21875 1294.390625 192.667969 1234.625 169.785156 1164.242188 C 146.90625 1093.855469 151.035156 1016.964844 182.027344 935.898438 C 211.964844 857.898438 265.382812 779.324219 340.6875 702.277344 C 495.707031 544.253906 726.238281 409.921875 989.875 324.222656 C 1253.507812 238.519531 1518.964844 211.617188 1737.132812 248.554688 C 1843.550781 266.527344 1932.964844 298.671875 2002.839844 344.222656 C 2075.574219 391.574219 2124.0625 451.132812 2147.007812 521.722656 C 2169.957031 592.3125 2165.757812 668.996094 2134.769531 750.066406 C 2104.828125 828.066406 2051.410156 906.640625 1976.105469 983.6875 C 1821.019531 1141.503906 1590.695312 1275.769531 1327.058594 1361.472656 Z M 992.550781 332.453125 C 451.902344 508.203125 86.5625 880.230469 178.019531 1161.566406 C 269.472656 1442.898438 783.738281 1528.988281 1324.382812 1353.238281 C 1865.027344 1177.488281 2230.371094 805.460938 2138.914062 524.125 C 2047.460938 242.792969 1533.195312 156.703125 992.550781 332.453125 Z M 992.550781 332.453125 " fill-opacity="1" fill-rule="nonzero"/></g></g></g></g></g></g><g mask="url(#b107b8f856)"><g transform="matrix(1, 0, 0, 1, 343, 286)"><g clip-path="url(#7f16b2aa9f)"><g clip-path="url(#806e8126af)"><g clip-path="url(#dad5fad225)"><g clip-path="url(#516facc16b)"><path fill="#ffffff" d="M 1326.863281 1361.480469 C 1063.230469 1447.183594 797.773438 1474.085938 579.605469 1437.148438 C 473.1875 1419.175781 383.777344 1387.03125 313.902344 1341.480469 C 241.027344 1294.402344 192.472656 1234.636719 169.589844 1164.253906 C 146.710938 1093.867188 150.84375 1016.976562 181.832031 935.90625 C 211.769531 857.910156 265.1875 779.332031 340.492188 702.289062 C 495.511719 544.265625 726.046875 409.933594 989.679688 324.230469 C 1253.3125 238.53125 1518.769531 211.628906 1736.9375 248.566406 C 1843.359375 266.535156 1932.769531 298.683594 2002.644531 344.234375 C 2075.378906 391.585938 2123.867188 451.144531 2146.8125 521.734375 C 2169.761719 592.324219 2165.5625 669.007812 2134.574219 750.078125 C 2104.632812 828.078125 2051.214844 906.652344 1975.910156 983.699219 C 1820.824219 1141.515625 1590.5 1275.78125 1326.863281 1361.480469 Z M 992.355469 332.464844 C 451.710938 508.214844 86.367188 880.242188 177.824219 1161.578125 C 269.277344 1442.910156 783.542969 1529 1324.1875 1353.25 C 1864.835938 1177.5 2230.175781 805.472656 2138.71875 524.136719 C 2047.265625 242.804688 1533 156.714844 992.355469 332.464844 Z M 992.355469 332.464844 " fill-opacity="1" fill-rule="nonzero"/></g></g></g></g></g></g><g mask="url(#0557a0bb2e)"><g transform="matrix(1, 0, 0, 1, 327, 238)"><g clip-path="url(#b0be363283)"><g clip-path="url(#ecdcab87fb)"><g clip-path="url(#01697e5793)"><g clip-path="url(#07fe3d79b6)"><path fill="#ffffff" d="M 1327.265625 1361.5 C 1063.632812 1447.199219 798.175781 1474.101562 580.007812 1437.164062 C 473.589844 1419.195312 384.175781 1387.046875 314.300781 1341.496094 C 241.429688 1294.417969 192.875 1234.65625 169.992188 1164.269531 C 147.113281 1093.886719 151.246094 1016.996094 182.234375 935.925781 C 212.171875 857.925781 265.589844 779.351562 340.894531 702.308594 C 495.914062 544.28125 726.449219 409.949219 990.082031 324.25 C 1253.714844 238.546875 1519.171875 211.648438 1737.339844 248.585938 C 1843.761719 266.554688 1933.171875 298.699219 2003.046875 344.25 C 2075.78125 391.601562 2124.269531 451.160156 2147.214844 521.75 C 2170.164062 592.34375 2165.964844 669.027344 2134.976562 750.097656 C 2105.035156 828.09375 2051.617188 906.671875 1976.3125 983.714844 C 1821.226562 1141.535156 1590.902344 1275.800781 1327.265625 1361.5 Z M 992.757812 332.480469 C 452.113281 508.230469 86.769531 880.261719 178.226562 1161.59375 C 269.679688 1442.929688 783.945312 1529.019531 1324.589844 1353.269531 C 1865.238281 1177.515625 2230.578125 805.488281 2139.121094 524.15625 C 2047.667969 242.820312 1533.402344 156.730469 992.757812 332.480469 Z M 992.757812 332.480469 " fill-opacity="1" fill-rule="nonzero"/></g></g></g></g></g></g></svg>