<svg xmlns="http://www.w3.org/2000/svg" xmlns:xlink="http://www.w3.org/1999/xlink" width="500" zoomAndPan="magnify" viewBox="0 0 375 374.999991" height="500" preserveAspectRatio="xMidYMid meet" version="1.0"><defs><clipPath id="f43bd775c5"><path d="M 34.21875 0 L 340.96875 0 L 340.96875 375 L 34.21875 375 Z M 34.21875 0 " clip-rule="nonzero"/></clipPath></defs><g clip-path="url(#f43bd775c5)"><path stroke-linecap="butt" transform="matrix(0.205885, 0, 0, 0.205885, 34.11581, -0.0610729)" fill-opacity="1" fill="#3b83f6" fill-rule="evenodd" stroke-linejoin="miter" d="M 745.493347 1.491934 L 752.001082 1.491934 L 780.005213 16.00627 C 798.674633 25.663521 811.007075 32.0005 817.00254 34.998232 C 822.998004 37.995964 843.41294 47.74808 878.247346 64.25458 C 913.081753 80.742107 931.087119 89.090221 932.244471 89.242005 C 933.420796 89.412762 942.660641 93.340171 960.001953 101.005258 C 977.324291 108.670345 990.662302 114.324296 999.997012 118.005056 C 1009.331722 121.666842 1022.84049 126.675711 1040.504342 132.993716 C 1058.168194 139.330695 1069.324312 143.333995 1073.991667 145.003618 C 1078.659022 146.673241 1084.502702 148.665405 1091.503735 150.999082 C 1098.504768 153.33276 1107.497964 156.159735 1118.502297 159.498981 C 1129.506631 162.838227 1143.508696 166.841528 1160.508493 171.508883 C 1177.508291 176.157265 1193.995818 180.331322 1210.00902 183.993109 C 1226.003249 187.673869 1236.324555 190.007546 1240.99191 190.994142 C 1245.659265 191.99971 1260.496142 194.826685 1285.502541 199.494041 C 1310.508939 204.161396 1326.161655 207.007344 1332.498633 207.993939 C 1338.835611 208.999508 1354.336542 211.503942 1379.001427 215.507243 C 1403.666312 219.49157 1416.169511 221.502707 1416.492052 221.502707 C 1416.833566 221.502707 1428.824494 223.836385 1452.502784 228.50374 C 1476.1621 233.171095 1488.077137 235.580664 1488.247894 235.751421 L 1488.494543 235.99807 L 1486.995677 310.504995 C 1486.009081 360.157306 1483.504647 424.323952 1479.501346 503.004935 C 1475.498046 581.666944 1472.329557 636.669638 1469.995879 667.994041 C 1467.662202 699.337418 1465.005983 726.165224 1462.008251 748.496431 C 1458.991546 770.827638 1455.500516 792.001493 1451.497215 811.999023 C 1447.493915 831.996552 1443.168074 852.164839 1438.500718 872.503883 C 1433.833363 892.823953 1429.659306 910.658562 1425.997519 926.00771 C 1422.335732 941.337884 1417.990918 957.825411 1413.001022 975.508236 C 1407.992153 993.172088 1404.994421 1003.834908 1404.007826 1007.496694 C 1403.002257 1011.158481 1401.503391 1015.825836 1399.492254 1021.49876 C 1397.500091 1027.171683 1395.166413 1034.172716 1392.491222 1042.501858 C 1389.835003 1050.831 1385.660946 1062.840901 1380.006995 1078.493617 C 1374.334072 1094.165305 1369.666717 1106.668504 1366.00493 1116.003215 C 1362.32417 1125.337925 1357.827572 1136.494042 1352.496162 1149.490539 C 1347.164753 1162.506009 1340.334477 1178.158724 1332.005335 1196.505604 C 1323.65722 1214.833511 1318.667324 1225.49633 1316.997701 1228.494063 C 1315.328078 1231.491795 1309.256722 1242.420236 1298.745686 1261.24144 C 1288.253624 1280.081618 1281.916646 1291.256708 1279.753725 1294.747738 C 1277.590804 1298.257741 1272.411179 1307.08018 1264.252794 1321.253002 C 1256.075436 1335.425825 1250.744026 1344.419021 1248.258564 1348.251565 C 1245.75413 1352.084108 1241.921586 1358.079573 1236.741961 1366.256931 C 1231.581308 1374.415316 1227.40725 1380.752294 1224.257734 1385.248892 C 1221.089245 1389.74549 1217.408485 1395.0769 1213.253401 1401.243121 C 1209.079344 1407.409342 1205.076043 1413.082266 1201.243499 1418.242919 C 1197.410956 1423.422545 1194.413224 1427.748386 1192.250303 1431.258389 C 1190.087382 1434.749419 1186.918893 1439.246017 1182.744836 1444.748183 C 1178.589751 1450.25035 1174.586451 1455.752517 1170.753907 1461.254683 C 1166.921364 1466.75685 1162.747306 1472.4108 1158.250708 1478.254481 C 1153.75411 1484.079188 1149.921566 1489.088057 1146.753077 1493.243142 C 1143.584588 1497.417199 1136.830204 1505.328935 1126.508898 1516.997323 C 1116.16862 1528.665711 1104.006934 1542.003722 1090.004869 1556.992382 C 1076.002803 1572.000016 1063.670361 1584.825756 1053.007542 1595.507549 C 1042.325749 1606.170368 1035.248825 1612.924752 1031.757795 1615.751727 C 1028.247792 1618.578703 1020.089407 1625.750492 1007.244694 1637.248123 C 994.418954 1648.745754 986.583109 1655.746787 983.756134 1658.251221 C 980.910186 1660.755656 973.909153 1666.921877 962.753036 1676.749885 C 951.577946 1686.577893 944.254373 1692.914871 940.74437 1695.741846 C 937.25334 1698.587794 933.250039 1701.908067 928.753441 1705.740611 C 924.256843 1709.592128 917.995757 1714.828672 910.008129 1721.507164 C 902.001527 1728.166683 895.911198 1733.080687 891.756114 1736.249176 C 887.582056 1739.417665 883.578756 1742.24464 879.746212 1744.749075 C 875.913669 1747.253509 868.912636 1751.579351 858.743114 1757.745572 C 848.592565 1763.911793 841.914073 1768.085851 838.745584 1770.248771 C 835.577095 1772.411692 831.991201 1774.669478 828.006873 1777.003155 C 824.003572 1779.336833 819.829515 1781.993051 815.503674 1784.990783 C 811.158859 1788.007488 808.009343 1790.170409 805.998207 1791.498518 C 804.006043 1792.826627 799.661228 1795.160305 793.00171 1798.499551 C 786.342191 1801.838797 778.33559 1805.67134 769.000879 1809.997182 C 759.666169 1814.341996 753.158434 1817.168971 749.496647 1818.497081 L 743.994481 1820.508217 L 737.999016 1819.009351 C 733.995716 1818.003783 729.669875 1816.33416 725.002519 1814.000482 C 720.335164 1811.666805 712.49932 1807.663504 701.494987 1801.990581 C 690.490654 1796.33663 684.172648 1792.826627 682.503026 1791.498518 C 680.833403 1790.170409 676.583453 1787.248569 669.753177 1782.751971 C 662.922902 1778.255372 657.743276 1774.916126 654.252246 1772.753206 C 650.742243 1770.590285 643.911967 1766.416228 633.742446 1760.250006 C 623.591897 1754.083785 616.590864 1749.757944 612.75832 1747.253509 C 608.925777 1744.749075 604.922476 1741.9221 600.748419 1738.753611 C 596.574361 1735.585122 591.831114 1731.82847 586.499705 1727.502629 C 581.168295 1723.157814 574.09137 1717.257215 565.249958 1709.743911 C 556.408545 1702.249581 548.743458 1695.741846 542.254696 1690.258652 C 535.746961 1684.756486 526.241494 1676.408371 513.757267 1665.252254 C 501.254068 1654.077164 493.247467 1647.076131 489.756437 1644.249156 C 486.246434 1641.422181 478.581347 1634.743689 466.742202 1624.251626 C 454.922031 1613.740591 448.338404 1607.839991 446.991321 1606.492909 C 445.663212 1605.1648 439.74364 1599.245227 429.251577 1588.753165 C 418.740542 1578.242129 411.416968 1570.747799 407.242911 1566.251201 C 403.087826 1561.754603 393.923873 1551.755838 379.751051 1536.254906 C 365.578228 1520.753975 357.07833 1511.248508 354.251354 1507.757478 C 351.424379 1504.247475 347.250322 1499.086822 341.748155 1492.256546 C 336.245989 1485.407297 331.920147 1479.924104 328.751658 1475.750046 C 325.583169 1471.575989 322.41468 1467.250148 319.246191 1462.753549 C 316.077702 1458.256951 312.757429 1453.589596 309.247426 1448.751484 C 305.756396 1443.913372 302.587907 1439.587531 299.741959 1435.754987 C 296.914984 1431.922443 294.505414 1428.507305 292.494277 1425.4906 C 290.502114 1422.492868 287.75103 1418.584433 284.241028 1413.746321 C 280.749998 1408.908209 277.752266 1404.582367 275.247831 1400.749824 C 272.743397 1396.91728 269.423124 1391.908411 265.249066 1385.74219 C 261.075009 1379.575969 257.925493 1374.75683 255.743599 1371.246827 C 253.580678 1367.755797 250.089649 1362.25363 245.251537 1354.7593 C 240.413424 1347.245996 237.244935 1342.085344 235.746069 1339.258368 C 234.247203 1336.41242 230.092119 1329.240631 223.24287 1317.743 C 216.412594 1306.245369 211.915996 1298.751038 209.753075 1295.241035 C 207.590155 1291.750006 202.16388 1282.168647 193.493224 1266.496958 C 184.841542 1250.82527 178.333807 1239.005098 174.007965 1230.998497 C 169.663151 1222.991896 165.830607 1215.497566 162.491361 1208.496533 C 159.171088 1201.4955 154.503733 1191.003438 148.508269 1177.001372 C 142.493832 1162.999307 139.4961 1155.827517 139.4961 1155.504976 C 139.4961 1155.163463 136.498367 1147.498375 130.502903 1132.490742 C 124.507439 1117.502081 119.840084 1105.662936 116.500838 1096.99228 C 113.161592 1088.340598 108.494237 1075.173344 102.498772 1057.490519 C 96.503308 1039.826667 90.507844 1021.005462 84.493406 1001.007932 C 78.497942 980.99143 71.838423 956.668059 64.495877 927.999873 C 57.172303 899.331688 51.992677 878.006049 48.994945 864.003984 C 45.997213 850.001918 41.842129 829.662875 36.491746 803.005826 C 31.160336 776.329805 27.991847 758.836709 27.005252 750.507568 C 25.999683 742.159453 23.836763 716.659756 20.497517 674.008479 C 17.158271 631.338228 14.99535 599.16004 14.008755 577.492887 C 13.003186 555.825734 11.826861 532.830472 10.498752 508.507101 C 9.170643 484.164757 7.330263 444.340455 4.996585 388.996248 C 2.662908 333.671014 1.505555 294.491793 1.505555 271.496531 L 1.505555 237.003638 L 4.749936 235.258124 C 6.912857 234.081798 12.832429 232.658824 22.508654 231.008174 C 32.165905 229.338551 45.503915 227.17563 62.503713 224.500439 C 79.50351 221.825248 105.325748 217.499406 140.00837 211.503942 C 174.67202 205.508478 199.507662 201.163663 214.496322 198.507445 C 229.503956 195.832254 249.330729 191.658196 273.995614 186.004246 C 298.660499 180.331322 320.005111 174.999913 337.991503 169.991044 C 355.996869 165.001148 371.497801 160.333793 384.494298 156.007951 C 397.490795 151.663137 407.660317 148.323891 415.002863 146.009186 C 422.326437 143.675509 429.327469 141.341831 436.005961 139.008154 C 442.66548 136.674476 456.003491 131.665607 476.001021 124.00052 C 495.99855 116.335433 514.743863 108.57548 532.255931 100.758609 C 549.749026 92.922765 559.083736 88.919465 560.241089 88.748708 C 561.417414 88.577951 569.841421 84.840272 585.494136 77.497726 C 601.165825 70.174152 615.338647 63.49566 627.99363 57.500196 C 640.667586 51.504732 653.170786 45.509267 665.503228 39.49483 C 677.83567 33.499366 693.165845 25.663521 711.493752 16.00627 L 739.004585 1.491934 Z M 745.493347 1.491934 " stroke="#000000" stroke-width="2" stroke-opacity="1" stroke-miterlimit="4"/></g></svg>