<svg xmlns="http://www.w3.org/2000/svg" xmlns:xlink="http://www.w3.org/1999/xlink" width="500" zoomAndPan="magnify" viewBox="0 0 375 374.999991" height="500" preserveAspectRatio="xMidYMid meet" version="1.0"><defs><clipPath id="45757a8ef1"><path d="M 0 5.796875 L 375 5.796875 L 375 295 L 0 295 Z M 0 5.796875 " clip-rule="nonzero"/></clipPath><clipPath id="f25b29796a"><path d="M 95 306 L 158 306 L 158 369.546875 L 95 369.546875 Z M 95 306 " clip-rule="nonzero"/></clipPath><clipPath id="f23c209677"><path d="M 273 306 L 336 306 L 336 369.546875 L 273 369.546875 Z M 273 306 " clip-rule="nonzero"/></clipPath></defs><g clip-path="url(#45757a8ef1)"><path fill="#2564eb" d="M 370.878906 65.90625 C 367.90625 62.300781 363.476562 60.214844 358.800781 60.214844 L 91.53125 60.214844 L 78.664062 17 C 76.6875 10.355469 70.585938 5.804688 63.652344 5.804688 L 15.832031 5.804688 C 7.179688 5.804688 0.167969 12.816406 0.167969 21.46875 C 0.167969 30.121094 7.179688 37.132812 15.832031 37.132812 L 51.96875 37.132812 L 110.511719 233.78125 C 104.167969 245.414062 98.148438 262.074219 104.972656 276.027344 C 111.015625 288.378906 124.671875 294.644531 145.550781 294.644531 C 145.929688 294.644531 146.308594 294.632812 146.6875 294.59375 C 148.042969 294.46875 282.996094 282.09375 329.527344 284.730469 C 336.3125 285.09375 342.1875 279.902344 342.574219 273.082031 C 342.960938 266.261719 337.742188 260.421875 330.917969 260.042969 C 283.675781 257.375 156.105469 268.894531 145.003906 269.910156 C 133.554688 269.835938 128.253906 267.316406 127.191406 265.164062 C 126.011719 262.761719 126.851562 258.222656 128.839844 253.089844 C 129.171875 253.070312 129.5 253.066406 129.839844 253.023438 L 334.296875 228.292969 C 341.054688 227.472656 346.511719 222.382812 347.796875 215.703125 L 374.183594 78.847656 C 375.0625 74.253906 373.855469 69.507812 370.878906 65.90625 Z M 257.394531 141.894531 L 193.089844 141.894531 L 193.089844 91.542969 L 257.394531 91.542969 Z M 120.269531 156.734375 L 178.25 156.734375 L 178.25 215.609375 L 139.199219 220.335938 Z M 193.089844 156.734375 L 257.394531 156.734375 L 257.394531 206.035156 L 193.089844 213.8125 Z M 330.125 141.894531 L 272.234375 141.894531 L 272.234375 91.542969 L 339.832031 91.542969 Z M 178.25 91.542969 L 178.25 141.894531 L 115.847656 141.894531 L 100.859375 91.542969 Z M 272.234375 204.238281 L 272.234375 156.734375 L 327.261719 156.734375 L 319.195312 198.554688 Z M 272.234375 204.238281 " fill-opacity="1" fill-rule="nonzero"/></g><g clip-path="url(#f25b29796a)"><path fill="#2564eb" d="M 157.636719 338.019531 C 157.636719 339.042969 157.585938 340.066406 157.488281 341.085938 C 157.386719 342.109375 157.238281 343.121094 157.035156 344.125 C 156.835938 345.132812 156.585938 346.125 156.289062 347.105469 C 155.992188 348.085938 155.648438 349.050781 155.253906 349.996094 C 154.863281 350.945312 154.425781 351.871094 153.941406 352.773438 C 153.457031 353.679688 152.933594 354.554688 152.363281 355.410156 C 151.792969 356.261719 151.183594 357.082031 150.535156 357.875 C 149.882812 358.667969 149.195312 359.425781 148.46875 360.152344 C 147.746094 360.875 146.988281 361.5625 146.195312 362.214844 C 145.402344 362.863281 144.578125 363.472656 143.726562 364.042969 C 142.875 364.613281 141.996094 365.140625 141.09375 365.621094 C 140.1875 366.105469 139.261719 366.542969 138.316406 366.9375 C 137.371094 367.328125 136.40625 367.671875 135.425781 367.972656 C 134.441406 368.269531 133.449219 368.515625 132.445312 368.71875 C 131.4375 368.917969 130.425781 369.066406 129.40625 369.167969 C 128.386719 369.269531 127.363281 369.320312 126.339844 369.320312 C 125.3125 369.320312 124.289062 369.269531 123.269531 369.167969 C 122.25 369.066406 121.238281 368.917969 120.234375 368.71875 C 119.226562 368.515625 118.234375 368.269531 117.253906 367.972656 C 116.273438 367.671875 115.308594 367.328125 114.359375 366.9375 C 113.414062 366.542969 112.488281 366.105469 111.585938 365.621094 C 110.679688 365.140625 109.800781 364.613281 108.949219 364.042969 C 108.097656 363.472656 107.273438 362.863281 106.484375 362.214844 C 105.691406 361.5625 104.929688 360.875 104.207031 360.152344 C 103.480469 359.425781 102.792969 358.667969 102.144531 357.875 C 101.492188 357.082031 100.882812 356.261719 100.3125 355.410156 C 99.746094 354.554688 99.21875 353.679688 98.734375 352.773438 C 98.253906 351.871094 97.8125 350.945312 97.421875 349.996094 C 97.03125 349.050781 96.683594 348.085938 96.386719 347.105469 C 96.089844 346.125 95.839844 345.132812 95.640625 344.125 C 95.441406 343.121094 95.289062 342.109375 95.191406 341.085938 C 95.089844 340.066406 95.039062 339.042969 95.039062 338.019531 C 95.039062 336.996094 95.089844 335.972656 95.191406 334.953125 C 95.289062 333.929688 95.441406 332.917969 95.640625 331.914062 C 95.839844 330.90625 96.089844 329.914062 96.386719 328.933594 C 96.683594 327.953125 97.03125 326.988281 97.421875 326.042969 C 97.8125 325.09375 98.253906 324.167969 98.734375 323.265625 C 99.21875 322.359375 99.746094 321.484375 100.3125 320.628906 C 100.882812 319.777344 101.492188 318.957031 102.144531 318.164062 C 102.792969 317.371094 103.480469 316.613281 104.207031 315.886719 C 104.929688 315.164062 105.691406 314.476562 106.484375 313.824219 C 107.273438 313.175781 108.097656 312.566406 108.949219 311.996094 C 109.800781 311.425781 110.679688 310.898438 111.585938 310.417969 C 112.488281 309.933594 113.414062 309.496094 114.359375 309.101562 C 115.308594 308.710938 116.273438 308.367188 117.253906 308.066406 C 118.234375 307.769531 119.226562 307.523438 120.234375 307.320312 C 121.238281 307.121094 122.25 306.972656 123.269531 306.871094 C 124.289062 306.769531 125.3125 306.71875 126.339844 306.71875 C 127.363281 306.71875 128.386719 306.769531 129.40625 306.871094 C 130.425781 306.972656 131.4375 307.121094 132.445312 307.320312 C 133.449219 307.523438 134.445312 307.769531 135.425781 308.066406 C 136.40625 308.367188 137.371094 308.710938 138.316406 309.101562 C 139.261719 309.496094 140.1875 309.933594 141.09375 310.417969 C 141.996094 310.898438 142.875 311.425781 143.726562 311.996094 C 144.578125 312.566406 145.402344 313.175781 146.195312 313.824219 C 146.988281 314.476562 147.746094 315.164062 148.46875 315.886719 C 149.195312 316.613281 149.882812 317.371094 150.53125 318.164062 C 151.183594 318.957031 151.792969 319.777344 152.363281 320.628906 C 152.933594 321.484375 153.457031 322.359375 153.941406 323.265625 C 154.425781 324.167969 154.863281 325.09375 155.253906 326.042969 C 155.648438 326.988281 155.992188 327.953125 156.289062 328.933594 C 156.585938 329.914062 156.835938 330.90625 157.035156 331.914062 C 157.238281 332.917969 157.386719 333.929688 157.488281 334.953125 C 157.585938 335.972656 157.636719 336.996094 157.636719 338.019531 Z M 157.636719 338.019531 " fill-opacity="1" fill-rule="nonzero"/></g><g clip-path="url(#f23c209677)"><path fill="#2564eb" d="M 335.714844 338.019531 C 335.714844 339.042969 335.664062 340.066406 335.5625 341.085938 C 335.464844 342.109375 335.3125 343.121094 335.113281 344.125 C 334.914062 345.132812 334.664062 346.125 334.367188 347.105469 C 334.070312 348.085938 333.722656 349.050781 333.332031 349.996094 C 332.941406 350.945312 332.5 351.871094 332.019531 352.773438 C 331.535156 353.679688 331.007812 354.554688 330.441406 355.410156 C 329.871094 356.261719 329.261719 357.082031 328.609375 357.875 C 327.960938 358.667969 327.273438 359.425781 326.546875 360.152344 C 325.820312 360.875 325.0625 361.5625 324.269531 362.214844 C 323.480469 362.863281 322.65625 363.472656 321.804688 364.042969 C 320.953125 364.613281 320.074219 365.140625 319.167969 365.621094 C 318.265625 366.105469 317.339844 366.542969 316.394531 366.9375 C 315.445312 367.328125 314.480469 367.671875 313.5 367.972656 C 312.519531 368.269531 311.527344 368.515625 310.519531 368.71875 C 309.515625 368.917969 308.503906 369.066406 307.484375 369.167969 C 306.464844 369.269531 305.441406 369.320312 304.414062 369.320312 C 303.390625 369.320312 302.367188 369.269531 301.347656 369.167969 C 300.328125 369.066406 299.316406 368.917969 298.308594 368.71875 C 297.304688 368.515625 296.308594 368.269531 295.328125 367.972656 C 294.347656 367.671875 293.382812 367.328125 292.4375 366.9375 C 291.492188 366.542969 290.566406 366.105469 289.660156 365.621094 C 288.757812 365.140625 287.878906 364.613281 287.027344 364.042969 C 286.175781 363.472656 285.351562 362.863281 284.558594 362.214844 C 283.765625 361.5625 283.007812 360.875 282.285156 360.152344 C 281.558594 359.425781 280.871094 358.667969 280.21875 357.875 C 279.570312 357.082031 278.960938 356.261719 278.390625 355.410156 C 277.820312 354.554688 277.296875 353.679688 276.8125 352.773438 C 276.328125 351.871094 275.890625 350.945312 275.5 349.996094 C 275.105469 349.050781 274.761719 348.085938 274.464844 347.105469 C 274.167969 346.125 273.917969 345.132812 273.71875 344.125 C 273.515625 343.121094 273.367188 342.109375 273.265625 341.085938 C 273.167969 340.066406 273.117188 339.042969 273.117188 338.019531 C 273.117188 336.996094 273.167969 335.972656 273.265625 334.953125 C 273.367188 333.929688 273.515625 332.917969 273.71875 331.914062 C 273.917969 330.90625 274.167969 329.914062 274.464844 328.933594 C 274.761719 327.953125 275.105469 326.988281 275.5 326.042969 C 275.890625 325.09375 276.328125 324.167969 276.8125 323.265625 C 277.296875 322.359375 277.820312 321.484375 278.390625 320.628906 C 278.960938 319.777344 279.570312 318.957031 280.21875 318.164062 C 280.871094 317.371094 281.558594 316.613281 282.285156 315.886719 C 283.007812 315.164062 283.765625 314.476562 284.558594 313.824219 C 285.351562 313.175781 286.175781 312.566406 287.027344 311.996094 C 287.878906 311.425781 288.757812 310.898438 289.660156 310.417969 C 290.566406 309.933594 291.492188 309.496094 292.4375 309.101562 C 293.382812 308.710938 294.347656 308.367188 295.328125 308.066406 C 296.308594 307.769531 297.304688 307.523438 298.308594 307.320312 C 299.3125 307.121094 300.328125 306.972656 301.347656 306.871094 C 302.367188 306.769531 303.390625 306.71875 304.414062 306.71875 C 305.441406 306.71875 306.464844 306.769531 307.484375 306.871094 C 308.503906 306.972656 309.515625 307.121094 310.519531 307.320312 C 311.527344 307.523438 312.519531 307.769531 313.5 308.066406 C 314.480469 308.367188 315.445312 308.710938 316.394531 309.101562 C 317.339844 309.496094 318.265625 309.933594 319.167969 310.417969 C 320.074219 310.898438 320.953125 311.425781 321.804688 311.996094 C 322.65625 312.566406 323.480469 313.175781 324.269531 313.824219 C 325.0625 314.476562 325.820312 315.164062 326.546875 315.886719 C 327.273438 316.613281 327.960938 317.371094 328.609375 318.164062 C 329.261719 318.957031 329.871094 319.777344 330.441406 320.628906 C 331.007812 321.484375 331.535156 322.359375 332.019531 323.265625 C 332.5 324.167969 332.941406 325.09375 333.332031 326.042969 C 333.722656 326.988281 334.070312 327.953125 334.367188 328.933594 C 334.664062 329.914062 334.914062 330.90625 335.113281 331.914062 C 335.3125 332.917969 335.464844 333.929688 335.5625 334.953125 C 335.664062 335.972656 335.714844 336.996094 335.714844 338.019531 Z M 335.714844 338.019531 " fill-opacity="1" fill-rule="nonzero"/></g></svg>