<svg xmlns="http://www.w3.org/2000/svg" xmlns:xlink="http://www.w3.org/1999/xlink" width="1920" zoomAndPan="magnify" viewBox="0 0 1440 809.999993" height="1080" preserveAspectRatio="xMidYMid meet" version="1.0"><defs><filter x="0%" y="0%" width="100%" height="100%" id="174b914902"><feColorMatrix values="0 0 0 0 1 0 0 0 0 1 0 0 0 0 1 0 0 0 1 0" color-interpolation-filters="sRGB"/></filter><mask id="d682a89f38"><g filter="url(#174b914902)"><rect x="-144" width="1728" fill="#000000" y="-80.999999" height="971.999992" fill-opacity="0.2"/></g></mask><clipPath id="08cfc62f9b"><path d="M 0 1.578125 L 576 1.578125 L 576 18 L 0 18 Z M 0 1.578125 " clip-rule="nonzero"/></clipPath><clipPath id="4a25541646"><rect x="0" width="577" y="0" height="18"/></clipPath><mask id="0c3308ad75"><g filter="url(#174b914902)"><rect x="-144" width="1728" fill="#000000" y="-80.999999" height="971.999992" fill-opacity="0.2"/></g></mask><clipPath id="dfebca5a69"><path d="M 0 1.398438 L 576 1.398438 L 576 107 L 0 107 Z M 0 1.398438 " clip-rule="nonzero"/></clipPath><clipPath id="de763ac12a"><rect x="0" width="577" y="0" height="107"/></clipPath><mask id="6309712b17"><g filter="url(#174b914902)"><rect x="-144" width="1728" fill="#000000" y="-80.999999" height="971.999992" fill-opacity="0.2"/></g></mask><clipPath id="98604bf998"><path d="M 0.832031 1.53125 L 965.332031 1.53125 L 965.332031 237 L 0.832031 237 Z M 0.832031 1.53125 " clip-rule="nonzero"/></clipPath><clipPath id="9ad9997610"><rect x="0" width="966" y="0" height="237"/></clipPath><mask id="5c3b02784b"><g filter="url(#174b914902)"><rect x="-144" width="1728" fill="#000000" y="-80.999999" height="971.999992" fill-opacity="0.2"/></g></mask><clipPath id="46360f9c70"><path d="M 0.804688 2 L 1235.304688 2 L 1235.304688 364 L 0.804688 364 Z M 0.804688 2 " clip-rule="nonzero"/></clipPath><clipPath id="2580c24c2d"><rect x="0" width="1236" y="0" height="364"/></clipPath><mask id="b1dfcda99c"><g filter="url(#174b914902)"><rect x="-144" width="1728" fill="#000000" y="-80.999999" height="971.999992" fill-opacity="0.2"/></g></mask><clipPath id="52b931e3c8"><path d="M 0 1.542969 L 1440 1.542969 L 1440 469 L 0 469 Z M 0 1.542969 " clip-rule="nonzero"/></clipPath><clipPath id="7cb03c44ff"><rect x="0" width="1440" y="0" height="469"/></clipPath><mask id="893d8a9c12"><g filter="url(#174b914902)"><rect x="-144" width="1728" fill="#000000" y="-80.999999" height="971.999992" fill-opacity="0.2"/></g></mask><clipPath id="0fdcc2a1f9"><path d="M 0 2 L 1440 2 L 1440 622 L 0 622 Z M 0 2 " clip-rule="nonzero"/></clipPath><clipPath id="011020aa10"><rect x="0" width="1440" y="0" height="622"/></clipPath><mask id="75908d7488"><g filter="url(#174b914902)"><rect x="-144" width="1728" fill="#000000" y="-80.999999" height="971.999992" fill-opacity="0.2"/></g></mask><clipPath id="7e0946cfb1"><path d="M 0 2.144531 L 1440 2.144531 L 1440 808 L 0 808 Z M 0 2.144531 " clip-rule="nonzero"/></clipPath><clipPath id="65af0fe052"><rect x="0" width="1440" y="0" height="808"/></clipPath></defs><g mask="url(#d682a89f38)"><g transform="matrix(1, 0, 0, 1, 432, 792)"><g clip-path="url(#4a25541646)"><g clip-path="url(#08cfc62f9b)"><path fill="#ffffff" d="M 288.03125 303.863281 C 211.226562 303.863281 138.980469 288.214844 84.660156 259.796875 C 58.15625 245.945312 37.351562 229.820312 22.84375 211.832031 C 7.675781 193.1875 0 173.28125 0 152.773438 C 0 132.269531 7.675781 112.363281 22.785156 93.65625 C 37.351562 75.671875 58.15625 59.542969 84.597656 45.691406 C 138.980469 17.332031 211.226562 1.683594 288.03125 1.683594 C 364.832031 1.683594 437.082031 17.332031 491.402344 45.753906 C 517.902344 59.601562 538.707031 75.730469 553.214844 93.71875 C 568.324219 112.425781 576 132.269531 576 152.835938 C 576 173.398438 568.324219 193.246094 553.214844 211.953125 C 538.648438 229.9375 517.84375 246.066406 491.402344 259.917969 C 437.019531 288.214844 364.832031 303.863281 288.03125 303.863281 Z M 288.03125 4.082031 C 130.523438 4.082031 2.398438 70.816406 2.398438 152.773438 C 2.398438 234.734375 130.523438 301.464844 288.03125 301.464844 C 445.535156 301.464844 573.660156 234.734375 573.660156 152.773438 C 573.660156 70.816406 445.535156 4.082031 288.03125 4.082031 Z M 288.03125 4.082031 " fill-opacity="1" fill-rule="nonzero"/></g></g></g></g><g mask="url(#0c3308ad75)"><g transform="matrix(1, 0, 0, 1, 432, 703)"><g clip-path="url(#de763ac12a)"><g clip-path="url(#dfebca5a69)"><path fill="#ffffff" d="M 288.03125 303.683594 C 211.226562 303.683594 138.980469 288.035156 84.660156 259.613281 C 58.15625 245.765625 37.351562 229.636719 22.84375 211.648438 C 7.675781 193.003906 0 173.097656 0 152.59375 C 0 132.085938 7.675781 112.183594 22.785156 93.476562 C 37.351562 75.488281 58.15625 59.359375 84.597656 45.511719 C 138.980469 17.152344 211.226562 1.503906 288.03125 1.503906 C 364.832031 1.503906 437.082031 17.152344 491.402344 45.570312 C 517.902344 59.421875 538.707031 75.546875 553.214844 93.535156 C 568.324219 112.242188 576 132.085938 576 152.652344 C 576 173.21875 568.324219 193.0625 553.214844 211.769531 C 538.648438 229.757812 517.84375 245.882812 491.402344 259.734375 C 437.019531 288.035156 364.832031 303.683594 288.03125 303.683594 Z M 288.03125 3.902344 C 130.523438 3.902344 2.398438 70.632812 2.398438 152.59375 C 2.398438 234.550781 130.523438 301.285156 288.03125 301.285156 C 445.535156 301.285156 573.660156 234.550781 573.660156 152.59375 C 573.660156 70.632812 445.535156 3.902344 288.03125 3.902344 Z M 288.03125 3.902344 " fill-opacity="1" fill-rule="nonzero"/></g></g></g></g><g mask="url(#6309712b17)"><g transform="matrix(1, 0, 0, 1, 237, 573)"><g clip-path="url(#9ad9997610)"><g clip-path="url(#98604bf998)"><path fill="#ffffff" d="M 483.050781 507.621094 C 354.464844 507.621094 233.507812 481.425781 142.566406 433.84375 C 98.199219 410.65625 63.367188 383.65625 39.074219 353.542969 C 13.679688 322.324219 0.832031 289 0.832031 254.667969 C 0.832031 220.339844 13.679688 187.015625 38.976562 155.695312 C 63.367188 125.582031 98.199219 98.582031 142.464844 75.394531 C 233.507812 27.914062 354.464844 1.714844 483.050781 1.714844 C 611.632812 1.714844 732.589844 27.914062 823.535156 75.492188 C 867.902344 98.679688 902.730469 125.683594 927.023438 155.796875 C 952.320312 187.113281 965.167969 220.339844 965.167969 254.769531 C 965.167969 289.199219 952.320312 322.425781 927.023438 353.742188 C 902.632812 383.855469 867.800781 410.859375 823.535156 434.046875 C 732.492188 481.425781 611.632812 507.621094 483.050781 507.621094 Z M 483.050781 5.730469 C 219.355469 5.730469 4.847656 117.453125 4.847656 254.667969 C 4.847656 391.886719 219.355469 503.609375 483.050781 503.609375 C 746.742188 503.609375 961.253906 391.886719 961.253906 254.667969 C 961.253906 117.453125 746.742188 5.730469 483.050781 5.730469 Z M 483.050781 5.730469 " fill-opacity="1" fill-rule="nonzero"/></g></g></g></g><g mask="url(#5c3b02784b)"><g transform="matrix(1, 0, 0, 1, 102, 446)"><g clip-path="url(#2580c24c2d)"><g clip-path="url(#46360f9c70)"><path fill="#ffffff" d="M 618.058594 649.738281 C 453.464844 649.738281 298.640625 616.203125 182.230469 555.296875 C 125.4375 525.617188 80.851562 491.054688 49.757812 452.507812 C 17.25 412.546875 0.804688 369.890625 0.804688 325.949219 C 0.804688 282.003906 17.25 239.347656 49.628906 199.257812 C 80.851562 160.710938 125.4375 126.148438 182.101562 96.46875 C 298.640625 35.695312 453.464844 2.15625 618.058594 2.15625 C 782.652344 2.15625 937.480469 35.695312 1053.890625 96.597656 C 1110.683594 126.277344 1155.265625 160.839844 1186.359375 199.386719 C 1218.742188 239.476562 1235.1875 282.003906 1235.1875 326.074219 C 1235.1875 370.148438 1218.742188 412.675781 1186.359375 452.765625 C 1155.140625 491.3125 1110.554688 525.875 1053.890625 555.554688 C 937.351562 616.203125 782.652344 649.738281 618.058594 649.738281 Z M 618.058594 7.296875 C 280.523438 7.296875 5.945312 150.304688 5.945312 325.949219 C 5.945312 501.589844 280.523438 644.597656 618.058594 644.597656 C 955.597656 644.597656 1230.175781 501.589844 1230.175781 325.949219 C 1230.175781 150.304688 955.597656 7.296875 618.058594 7.296875 Z M 618.058594 7.296875 " fill-opacity="1" fill-rule="nonzero"/></g></g></g></g><g mask="url(#b1dfcda99c)"><g transform="matrix(1, 0, 0, 1, 0, 341)"><g clip-path="url(#7cb03c44ff)"><g clip-path="url(#52b931e3c8)"><path fill="#ffffff" d="M 720.070312 774.171875 C 523.765625 774.171875 339.109375 734.175781 200.269531 661.535156 C 132.535156 626.136719 79.359375 584.914062 42.273438 538.941406 C 3.503906 491.28125 -16.113281 440.40625 -16.113281 387.996094 C -16.113281 335.585938 3.503906 284.710938 42.121094 236.898438 C 79.359375 190.925781 132.535156 149.703125 200.117188 114.300781 C 339.109375 41.816406 523.765625 1.820312 720.070312 1.820312 C 916.378906 1.820312 1101.035156 41.816406 1239.875 114.457031 C 1307.609375 149.855469 1360.785156 191.078125 1397.871094 237.050781 C 1436.488281 284.863281 1456.101562 335.585938 1456.101562 388.148438 C 1456.101562 440.710938 1436.488281 491.4375 1397.871094 539.25 C 1360.632812 585.222656 1307.457031 626.445312 1239.875 661.84375 C 1100.882812 734.175781 916.378906 774.171875 720.070312 774.171875 Z M 720.070312 7.953125 C 317.5 7.953125 -9.980469 178.511719 -9.980469 387.996094 C -9.980469 597.480469 317.5 768.042969 720.070312 768.042969 C 1122.644531 768.042969 1450.125 597.480469 1450.125 387.996094 C 1450.125 178.511719 1122.644531 7.953125 720.070312 7.953125 Z M 720.070312 7.953125 " fill-opacity="1" fill-rule="nonzero"/></g></g></g></g><g mask="url(#893d8a9c12)"><g transform="matrix(1, 0, 0, 1, 0, 188)"><g clip-path="url(#011020aa10)"><g clip-path="url(#0fdcc2a1f9)"><path fill="#ffffff" d="M 720.085938 927.117188 C 484.953125 927.117188 263.769531 879.210938 97.46875 792.203125 C 16.335938 749.804688 -47.355469 700.425781 -91.777344 645.359375 C -138.214844 588.273438 -161.710938 527.335938 -161.710938 464.558594 C -161.710938 401.78125 -138.214844 340.84375 -91.960938 283.574219 C -47.355469 228.507812 16.335938 179.128906 97.285156 136.730469 C 263.769531 49.90625 484.953125 2 720.085938 2 C 955.222656 2 1176.40625 49.90625 1342.707031 136.914062 C 1423.835938 179.3125 1487.53125 228.691406 1531.953125 283.757812 C 1578.207031 341.027344 1601.703125 401.78125 1601.703125 464.742188 C 1601.703125 527.703125 1578.207031 588.457031 1531.953125 645.726562 C 1487.347656 700.792969 1423.652344 750.171875 1342.707031 792.570312 C 1176.222656 879.210938 955.222656 927.117188 720.085938 927.117188 Z M 720.085938 9.339844 C 237.886719 9.339844 -154.371094 213.636719 -154.371094 464.558594 C -154.371094 715.476562 237.886719 919.773438 720.085938 919.773438 C 1202.285156 919.773438 1594.542969 715.476562 1594.542969 464.558594 C 1594.542969 213.636719 1202.285156 9.339844 720.085938 9.339844 Z M 720.085938 9.339844 " fill-opacity="1" fill-rule="nonzero"/></g></g></g></g><g mask="url(#75908d7488)"><g transform="matrix(1, 0, 0, 1, 0, 2)"><g clip-path="url(#65af0fe052)"><g clip-path="url(#7e0946cfb1)"><path fill="#ffffff" d="M 720.109375 1142.496094 C 430.375 1142.496094 157.828125 1083.460938 -47.085938 976.253906 C -147.058594 924.007812 -225.542969 863.164062 -280.277344 795.3125 C -337.5 724.96875 -366.449219 649.878906 -366.449219 572.527344 C -366.449219 495.171875 -337.5 420.082031 -280.503906 349.515625 C -225.542969 281.660156 -147.058594 220.820312 -47.3125 168.574219 C 157.828125 61.589844 430.375 2.558594 720.109375 2.558594 C 1009.839844 2.558594 1282.386719 61.589844 1487.304688 168.800781 C 1587.273438 221.046875 1665.757812 281.886719 1720.492188 349.742188 C 1777.488281 420.308594 1806.441406 495.175781 1806.441406 572.753906 C 1806.441406 650.332031 1777.488281 725.195312 1720.492188 795.765625 C 1665.53125 863.617188 1587.046875 924.460938 1487.304688 976.707031 C 1282.160156 1083.460938 1009.839844 1142.496094 720.109375 1142.496094 Z M 720.109375 11.605469 C 125.9375 11.605469 -357.402344 263.339844 -357.402344 572.527344 C -357.402344 881.710938 125.9375 1133.449219 720.109375 1133.449219 C 1314.277344 1133.449219 1797.617188 881.710938 1797.617188 572.527344 C 1797.617188 263.339844 1314.277344 11.605469 720.109375 11.605469 Z M 720.109375 11.605469 " fill-opacity="1" fill-rule="nonzero"/></g></g></g></g></svg>