<svg xmlns="http://www.w3.org/2000/svg" xmlns:xlink="http://www.w3.org/1999/xlink" width="500" zoomAndPan="magnify" viewBox="0 0 375 374.999991" height="500" preserveAspectRatio="xMidYMid meet" version="1.0"><defs><clipPath id="89b1d1df93"><path d="M 49.089844 0 L 325.839844 0 L 325.839844 375 L 49.089844 375 Z M 49.089844 0 " clip-rule="nonzero"/></clipPath></defs><g clip-path="url(#89b1d1df93)"><path fill="#2564eb" d="M 312.03125 152.023438 L 292.90625 152.023438 L 292.90625 105.523438 C 292.984375 47.324219 245.65625 0 187.457031 0 C 129.257812 0 81.933594 47.324219 81.933594 105.523438 L 81.933594 152.023438 L 62.882812 152.023438 C 55.308594 152.023438 49.15625 158.175781 49.15625 165.75 L 49.15625 361.351562 C 49.15625 368.851562 55.308594 375 62.882812 375 L 312.109375 375 C 319.683594 375 325.832031 368.851562 325.832031 361.273438 L 325.832031 165.75 C 325.757812 158.175781 319.609375 152.023438 312.03125 152.023438 Z M 109.382812 105.523438 C 109.382812 62.476562 144.40625 27.449219 187.457031 27.449219 C 230.507812 27.449219 265.53125 62.476562 265.53125 105.523438 L 265.53125 152.023438 L 109.382812 152.023438 Z M 201.183594 273.375 L 201.183594 309.449219 C 201.183594 317.023438 195.03125 323.175781 187.457031 323.175781 C 179.882812 323.175781 173.734375 317.023438 173.734375 309.449219 L 173.734375 273.375 C 164.28125 268.425781 157.832031 258.523438 157.832031 247.199219 C 157.832031 230.851562 171.109375 217.648438 187.382812 217.648438 C 203.734375 217.648438 216.933594 230.925781 216.933594 247.199219 C 217.082031 258.523438 210.632812 268.425781 201.183594 273.375 Z M 201.183594 273.375 " fill-opacity="1" fill-rule="nonzero"/></g></svg>