<svg xmlns="http://www.w3.org/2000/svg" xmlns:xlink="http://www.w3.org/1999/xlink" width="1920" zoomAndPan="magnify" viewBox="0 0 1440 809.999993" height="1080" preserveAspectRatio="xMidYMid meet" version="1.0"><defs><clipPath id="aebbedf55b"><path d="M 289.367188 152.160156 L 1150.632812 152.160156 L 1150.632812 657.839844 L 289.367188 657.839844 Z M 289.367188 152.160156 " clip-rule="nonzero"/></clipPath><clipPath id="7bac41ecad"><path d="M 327.617188 152.160156 L 1112.382812 152.160156 C 1122.527344 152.160156 1132.253906 156.191406 1139.429688 163.363281 C 1146.601562 170.535156 1150.632812 180.265625 1150.632812 190.410156 L 1150.632812 619.589844 C 1150.632812 629.734375 1146.601562 639.464844 1139.429688 646.636719 C 1132.253906 653.808594 1122.527344 657.839844 1112.382812 657.839844 L 327.617188 657.839844 C 317.472656 657.839844 307.746094 653.808594 300.570312 646.636719 C 293.398438 639.464844 289.367188 629.734375 289.367188 619.589844 L 289.367188 190.410156 C 289.367188 180.265625 293.398438 170.535156 300.570312 163.363281 C 307.746094 156.191406 317.472656 152.160156 327.617188 152.160156 Z M 327.617188 152.160156 " clip-rule="nonzero"/></clipPath><clipPath id="6e4dac14fb"><path d="M 575 107 L 1150.632812 107 L 1150.632812 197 L 575 197 Z M 575 107 " clip-rule="nonzero"/></clipPath><clipPath id="b851c542b2"><path d="M 346.140625 254.125 L 719.640625 254.125 L 719.640625 283 L 346.140625 283 Z M 346.140625 254.125 " clip-rule="nonzero"/></clipPath><clipPath id="b6b7060059"><path d="M 346.140625 322.039062 L 1090 322.039062 L 1090 379.789062 L 346.140625 379.789062 Z M 346.140625 322.039062 " clip-rule="nonzero"/></clipPath><clipPath id="570df66dab"><path d="M 346.140625 392.707031 L 1090 392.707031 L 1090 450.457031 L 346.140625 450.457031 Z M 346.140625 392.707031 " clip-rule="nonzero"/></clipPath><clipPath id="c6d10dbf4c"><path d="M 346.140625 463.097656 L 1090 463.097656 L 1090 520.847656 L 346.140625 520.847656 Z M 346.140625 463.097656 " clip-rule="nonzero"/></clipPath><clipPath id="39adf3ce4b"><path d="M 346.140625 533.488281 L 872.640625 533.488281 L 872.640625 573.988281 L 346.140625 573.988281 Z M 346.140625 533.488281 " clip-rule="nonzero"/></clipPath><clipPath id="d188ac6270"><path d="M 1071 561 L 1236 561 L 1236 704 L 1071 704 Z M 1071 561 " clip-rule="nonzero"/></clipPath><clipPath id="9c20112588"><path d="M 1474.78125 476.359375 L 1042.90625 857.488281 L 872.191406 664.046875 L 1304.066406 282.914062 Z M 1474.78125 476.359375 " clip-rule="nonzero"/></clipPath><clipPath id="f86d4c90e6"><path d="M 1474.78125 476.359375 L 1042.90625 857.488281 L 872.191406 664.046875 L 1304.066406 282.914062 Z M 1474.78125 476.359375 " clip-rule="nonzero"/></clipPath><clipPath id="83fb4a44b8"><path d="M 1020 613 L 1068 613 L 1068 680 L 1020 680 Z M 1020 613 " clip-rule="nonzero"/></clipPath><clipPath id="af20ed60c7"><path d="M 1474.78125 476.359375 L 1042.90625 857.488281 L 872.191406 664.046875 L 1304.066406 282.914062 Z M 1474.78125 476.359375 " clip-rule="nonzero"/></clipPath><clipPath id="ca29e10056"><path d="M 1474.78125 476.359375 L 1042.90625 857.488281 L 872.191406 664.046875 L 1304.066406 282.914062 Z M 1474.78125 476.359375 " clip-rule="nonzero"/></clipPath><clipPath id="0470814a31"><path d="M 1118 490 L 1218 490 L 1218 533 L 1118 533 Z M 1118 490 " clip-rule="nonzero"/></clipPath><clipPath id="01afb49ddc"><path d="M 1474.78125 476.359375 L 1042.90625 857.488281 L 872.191406 664.046875 L 1304.066406 282.914062 Z M 1474.78125 476.359375 " clip-rule="nonzero"/></clipPath><clipPath id="515790e80f"><path d="M 1474.78125 476.359375 L 1042.90625 857.488281 L 872.191406 664.046875 L 1304.066406 282.914062 Z M 1474.78125 476.359375 " clip-rule="nonzero"/></clipPath><clipPath id="696ce340f7"><path d="M 935 636 L 972 636 L 972 740 L 935 740 Z M 935 636 " clip-rule="nonzero"/></clipPath><clipPath id="cc95fb56ed"><path d="M 1474.78125 476.359375 L 1042.90625 857.488281 L 872.191406 664.046875 L 1304.066406 282.914062 Z M 1474.78125 476.359375 " clip-rule="nonzero"/></clipPath><clipPath id="70960f33e3"><path d="M 1474.78125 476.359375 L 1042.90625 857.488281 L 872.191406 664.046875 L 1304.066406 282.914062 Z M 1474.78125 476.359375 " clip-rule="nonzero"/></clipPath><clipPath id="943bb08ec2"><path d="M 1314 327 L 1354 327 L 1354 367 L 1314 367 Z M 1314 327 " clip-rule="nonzero"/></clipPath><clipPath id="c73fd780e4"><path d="M 1474.78125 476.359375 L 1042.90625 857.488281 L 872.191406 664.046875 L 1304.066406 282.914062 Z M 1474.78125 476.359375 " clip-rule="nonzero"/></clipPath><clipPath id="f427ed6536"><path d="M 1474.78125 476.359375 L 1042.90625 857.488281 L 872.191406 664.046875 L 1304.066406 282.914062 Z M 1474.78125 476.359375 " clip-rule="nonzero"/></clipPath><clipPath id="5efecab41c"><path d="M 1139 368 L 1275 368 L 1275 439 L 1139 439 Z M 1139 368 " clip-rule="nonzero"/></clipPath><clipPath id="1806bce37f"><path d="M 1474.78125 476.359375 L 1042.90625 857.488281 L 872.191406 664.046875 L 1304.066406 282.914062 Z M 1474.78125 476.359375 " clip-rule="nonzero"/></clipPath><clipPath id="76b513b1da"><path d="M 1474.78125 476.359375 L 1042.90625 857.488281 L 872.191406 664.046875 L 1304.066406 282.914062 Z M 1474.78125 476.359375 " clip-rule="nonzero"/></clipPath></defs><g clip-path="url(#aebbedf55b)"><g clip-path="url(#7bac41ecad)"><path fill="#f4f4f4" d="M 289.367188 152.160156 L 1150.632812 152.160156 L 1150.632812 657.839844 L 289.367188 657.839844 Z M 289.367188 152.160156 " fill-opacity="1" fill-rule="nonzero"/></g></g><g clip-path="url(#6e4dac14fb)"><path fill="#ffc30f" d="M 668.863281 143.101562 L 647.648438 163.703125 C 647.207031 164.132812 647.003906 164.75 647.109375 165.355469 L 652.117188 194.445312 C 652.378906 195.96875 650.773438 197.132812 649.398438 196.414062 L 623.175781 182.679688 C 622.628906 182.390625 621.976562 182.390625 621.429688 182.679688 L 595.207031 196.414062 C 593.828125 197.132812 592.222656 195.96875 592.484375 194.445312 L 597.496094 165.355469 C 597.597656 164.75 597.398438 164.132812 596.957031 163.703125 L 575.738281 143.101562 C 574.625 142.023438 575.238281 140.140625 576.777344 139.917969 L 606.09375 135.675781 C 606.707031 135.585938 607.234375 135.203125 607.507812 134.652344 L 620.621094 108.1875 C 621.308594 106.800781 623.292969 106.800781 623.984375 108.1875 L 637.09375 134.652344 C 637.367188 135.203125 637.894531 135.585938 638.507812 135.675781 L 667.824219 139.917969 C 669.363281 140.140625 669.976562 142.023438 668.863281 143.101562 Z M 787.988281 139.917969 L 758.667969 135.675781 C 758.058594 135.585938 757.53125 135.203125 757.257812 134.652344 L 744.148438 108.1875 C 743.457031 106.800781 741.472656 106.800781 740.785156 108.1875 L 727.671875 134.652344 C 727.398438 135.203125 726.871094 135.585938 726.257812 135.675781 L 696.941406 139.917969 C 695.402344 140.140625 694.789062 142.023438 695.902344 143.101562 L 717.117188 163.703125 C 717.558594 164.132812 717.761719 164.75 717.65625 165.355469 L 712.648438 194.445312 C 712.382812 195.96875 713.992188 197.132812 715.367188 196.414062 L 741.589844 182.679688 C 742.136719 182.390625 742.789062 182.390625 743.335938 182.679688 L 769.558594 196.414062 C 770.933594 197.132812 772.539062 195.96875 772.277344 194.445312 L 767.269531 165.355469 C 767.164062 164.75 767.367188 164.132812 767.808594 163.703125 L 789.023438 143.101562 C 790.136719 142.023438 789.523438 140.140625 787.984375 139.917969 Z M 908.152344 139.917969 L 878.835938 135.675781 C 878.222656 135.585938 877.695312 135.203125 877.421875 134.652344 L 864.3125 108.1875 C 863.621094 106.800781 861.636719 106.800781 860.949219 108.1875 L 847.835938 134.652344 C 847.5625 135.203125 847.035156 135.585938 846.421875 135.675781 L 817.105469 139.917969 C 815.566406 140.140625 814.953125 142.023438 816.066406 143.101562 L 837.28125 163.703125 C 837.722656 164.132812 837.925781 164.75 837.820312 165.355469 L 832.8125 194.445312 C 832.546875 195.96875 834.15625 197.132812 835.53125 196.414062 L 861.753906 182.679688 C 862.300781 182.390625 862.953125 182.390625 863.5 182.679688 L 889.722656 196.414062 C 891.097656 197.132812 892.703125 195.96875 892.441406 194.445312 L 887.433594 165.355469 C 887.328125 164.75 887.53125 164.132812 887.972656 163.703125 L 909.1875 143.101562 C 910.300781 142.023438 909.6875 140.140625 908.148438 139.917969 Z M 1028.320312 139.917969 L 999 135.675781 C 998.390625 135.585938 997.863281 135.203125 997.589844 134.652344 L 984.476562 108.1875 C 983.789062 106.800781 981.800781 106.800781 981.113281 108.1875 L 968 134.652344 C 967.730469 135.203125 967.199219 135.585938 966.589844 135.675781 L 937.269531 139.917969 C 935.734375 140.140625 935.117188 142.023438 936.230469 143.101562 L 957.445312 163.703125 C 957.886719 164.132812 958.089844 164.75 957.984375 165.355469 L 952.976562 194.445312 C 952.714844 195.96875 954.320312 197.132812 955.695312 196.414062 L 981.921875 182.679688 C 982.464844 182.390625 983.117188 182.390625 983.664062 182.679688 L 1009.886719 196.414062 C 1011.265625 197.132812 1012.871094 195.96875 1012.609375 194.445312 L 1007.597656 165.355469 C 1007.496094 164.75 1007.695312 164.132812 1008.136719 163.703125 L 1029.351562 143.101562 C 1030.464844 142.023438 1029.851562 140.140625 1028.316406 139.917969 Z M 1149.523438 143.101562 C 1150.636719 142.023438 1150.023438 140.140625 1148.484375 139.917969 L 1119.167969 135.675781 C 1118.554688 135.585938 1118.027344 135.203125 1117.753906 134.652344 L 1104.644531 108.1875 C 1103.953125 106.800781 1101.96875 106.800781 1101.28125 108.1875 L 1088.167969 134.652344 C 1087.894531 135.203125 1087.367188 135.585938 1086.753906 135.675781 L 1057.4375 139.917969 C 1055.898438 140.140625 1055.285156 142.023438 1056.398438 143.101562 L 1077.613281 163.703125 C 1078.054688 164.132812 1078.253906 164.75 1078.152344 165.355469 L 1073.140625 194.445312 C 1072.878906 195.96875 1074.488281 197.132812 1075.863281 196.414062 L 1102.085938 182.679688 C 1102.632812 182.390625 1103.285156 182.390625 1103.832031 182.679688 L 1130.054688 196.414062 C 1131.429688 197.132812 1133.035156 195.96875 1132.773438 194.445312 L 1127.765625 165.355469 C 1127.660156 164.75 1127.863281 164.132812 1128.304688 163.703125 L 1149.519531 143.101562 Z M 1149.523438 143.101562 " fill-opacity="1" fill-rule="nonzero"/></g><g clip-path="url(#b851c542b2)"><path fill="#a6a6a6" d="M 346.140625 254.230469 L 719.992188 254.230469 L 719.992188 282.988281 L 346.140625 282.988281 Z M 346.140625 254.230469 " fill-opacity="1" fill-rule="nonzero"/></g><g clip-path="url(#b6b7060059)"><path fill="#a6a6a6" d="M 346.140625 322.25 L 1089.871094 322.25 L 1089.871094 379.460938 L 346.140625 379.460938 Z M 346.140625 322.25 " fill-opacity="1" fill-rule="nonzero"/></g><g clip-path="url(#570df66dab)"><path fill="#a6a6a6" d="M 346.140625 392.917969 L 1089.871094 392.917969 L 1089.871094 450.128906 L 346.140625 450.128906 Z M 346.140625 392.917969 " fill-opacity="1" fill-rule="nonzero"/></g><g clip-path="url(#c6d10dbf4c)"><path fill="#a6a6a6" d="M 346.140625 463.308594 L 1089.871094 463.308594 L 1089.871094 520.519531 L 346.140625 520.519531 Z M 346.140625 463.308594 " fill-opacity="1" fill-rule="nonzero"/></g><g clip-path="url(#39adf3ce4b)"><path fill="#a6a6a6" d="M 346.140625 533.640625 L 872.347656 533.640625 L 872.347656 574.117188 L 346.140625 574.117188 Z M 346.140625 533.640625 " fill-opacity="1" fill-rule="nonzero"/></g><g clip-path="url(#d188ac6270)"><g clip-path="url(#9c20112588)"><g clip-path="url(#f86d4c90e6)"><path fill="#2564eb" d="M 1234.34375 685.546875 C 1237.78125 678.363281 1235.488281 674.753906 1222.363281 665.59375 C 1209.535156 656.765625 1188.921875 641.46875 1146.730469 608.765625 C 1112.335938 582.21875 1087.472656 564.453125 1081.628906 562.199219 C 1076.855469 560.484375 1070.308594 564.484375 1071.144531 568.785156 C 1071.378906 570.058594 1083.070312 581.96875 1097.195312 595.285156 C 1111.484375 608.457031 1138.261719 633.425781 1156.855469 650.800781 C 1175.449219 668.175781 1194.445312 686.675781 1199.003906 691.839844 C 1210.765625 705.167969 1214.488281 706.03125 1224.003906 697.335938 C 1228.335938 693.515625 1232.910156 688.289062 1234.34375 685.546875 Z M 1234.34375 685.546875 " fill-opacity="1" fill-rule="evenodd"/></g></g></g><g clip-path="url(#83fb4a44b8)"><g clip-path="url(#af20ed60c7)"><g clip-path="url(#ca29e10056)"><path fill="#2564eb" d="M 1067.898438 671.222656 C 1067.886719 668.859375 1059.929688 655.140625 1050.441406 640.695312 C 1036.804688 619.535156 1032.121094 613.890625 1029.003906 613.382812 C 1023.710938 612.421875 1020.546875 615.214844 1020.546875 620.253906 C 1020.714844 625.144531 1042.828125 669.34375 1048.121094 675.339844 C 1054.882812 683.003906 1068.125 680.210938 1067.898438 671.222656 Z M 1067.898438 671.222656 " fill-opacity="1" fill-rule="evenodd"/></g></g></g><g clip-path="url(#0470814a31)"><g clip-path="url(#01afb49ddc)"><g clip-path="url(#515790e80f)"><path fill="#2564eb" d="M 1217.179688 526.738281 C 1217.695312 520.945312 1206.738281 514.910156 1177.308594 504.730469 C 1136.929688 490.875 1124.648438 488.378906 1120.40625 493.308594 C 1114.621094 500.1875 1122.316406 505.546875 1153.757812 516.328125 C 1198.929688 531.582031 1210.542969 534.667969 1214.042969 531.582031 C 1215.707031 530.109375 1217.265625 527.847656 1217.179688 526.738281 Z M 1217.179688 526.738281 " fill-opacity="1" fill-rule="evenodd"/></g></g></g><g clip-path="url(#696ce340f7)"><g clip-path="url(#cc95fb56ed)"><g clip-path="url(#70960f33e3)"><path fill="#2564eb" d="M 970.984375 703.113281 C 970.175781 670.632812 965.980469 642.035156 961.933594 638.789062 C 955.621094 633.988281 951.269531 638.125 948.378906 651.640625 C 936.761719 706.640625 933.359375 733.347656 937.183594 737.679688 C 940.269531 741.179688 964.429688 740.011719 968.761719 736.1875 C 970.59375 734.570312 971.414062 721.398438 970.984375 703.113281 Z M 970.984375 703.113281 " fill-opacity="1" fill-rule="evenodd"/></g></g></g><g clip-path="url(#943bb08ec2)"><g clip-path="url(#c73fd780e4)"><g clip-path="url(#f427ed6536)"><path fill="#2564eb" d="M 1353.253906 349.160156 C 1353.859375 339.4375 1340.34375 326.472656 1330.210938 327.414062 C 1323.878906 327.964844 1322.398438 328.972656 1319.207031 334.757812 C 1310.179688 350.722656 1315.71875 365.394531 1331.527344 366.851562 C 1341.691406 367.960938 1352.628906 359.195312 1353.253906 349.160156 Z M 1353.253906 349.160156 " fill-opacity="1" fill-rule="evenodd"/></g></g></g><g clip-path="url(#5efecab41c)"><g clip-path="url(#1806bce37f)"><g clip-path="url(#76b513b1da)"><path fill="#2564eb" d="M 1274.382812 402.167969 C 1275.597656 392.800781 1262.796875 370.90625 1254.757812 368.515625 C 1249.339844 367.074219 1171.832031 405.84375 1149.613281 421.300781 C 1141.566406 426.621094 1139.363281 429.160156 1139.460938 432.632812 C 1139.472656 434.992188 1140.570312 437.578125 1141.785156 438.285156 C 1143.148438 439.15625 1157.21875 435.628906 1173.253906 430.960938 C 1200.851562 422.609375 1229.898438 416.238281 1254.15625 413.5 C 1269.070312 411.597656 1273.472656 409.195312 1274.382812 402.167969 Z M 1274.382812 402.167969 " fill-opacity="1" fill-rule="evenodd"/></g></g></g></svg>